<?xml version="1.0" encoding="UTF-8" standalone="no"?>
<!-- Created with Inkscape (http://www.inkscape.org/) -->

<svg
   xmlns:i="http://ns.adobe.com/AdobeIllustrator/10.0/"
   xmlns:dc="http://purl.org/dc/elements/1.1/"
   xmlns:cc="http://creativecommons.org/ns#"
   xmlns:rdf="http://www.w3.org/1999/02/22-rdf-syntax-ns#"
   xmlns:svg="http://www.w3.org/2000/svg"
   xmlns="http://www.w3.org/2000/svg"
   xmlns:sodipodi="http://sodipodi.sourceforge.net/DTD/sodipodi-0.dtd"
   xmlns:inkscape="http://www.inkscape.org/namespaces/inkscape"
   width="297mm"
   height="420mm"
   viewBox="0 0 1052.3622 1488.189"
   id="svg3442"
   version="1.1"
   inkscape:version="0.91pre3 r13670"
   sodipodi:docname="01-wikimedia.svg"
   inkscape:export-filename="C:\Users\aaradya\Desktop\wikipedia\wikimedia.png"
   inkscape:export-xdpi="99.97509"
   inkscape:export-ydpi="99.97509">
  <defs
     id="defs3444" />
  <sodipodi:namedview
     id="base"
     pagecolor="#ffffff"
     bordercolor="#666666"
     borderopacity="1.0"
     inkscape:pageopacity="0.0"
     inkscape:pageshadow="2"
     inkscape:zoom="0.25"
     inkscape:cx="479.41838"
     inkscape:cy="878.25954"
     inkscape:document-units="px"
     inkscape:current-layer="layer10"
     showgrid="false"
     units="mm"
     showguides="true"
     inkscape:guide-bbox="true"
     inkscape:window-width="1366"
     inkscape:window-height="716"
     inkscape:window-x="-8"
     inkscape:window-y="-8"
     inkscape:window-maximized="1">
    <sodipodi:guide
       orientation="1,0"
       position="0,1477.8793"
       id="guide3851" />
    <sodipodi:guide
       orientation="0,1"
       position="-4.2047532,1488.117"
       id="guide3853" />
    <sodipodi:guide
       orientation="1,0"
       position="1052.4062,-3.5"
       id="guide3855" />
    <sodipodi:guide
       orientation="0,1"
       position="1050.8203,-0.109375"
       id="guide3857" />
    <sodipodi:guide
       orientation="0,1"
       position="-158.39192,336.58283"
       id="guide3906" />
  </sodipodi:namedview>
  <metadata
     id="metadata3447">
    <rdf:RDF>
      <cc:Work
         rdf:about="">
        <dc:format>image/svg+xml</dc:format>
        <dc:type
           rdf:resource="http://purl.org/dc/dcmitype/StillImage" />
        <dc:title></dc:title>
      </cc:Work>
    </rdf:RDF>
  </metadata>
  <g
     inkscape:groupmode="layer"
     id="layer10"
     inkscape:label="white">
    <rect
       style="fill:#ffffff"
       id="rect3367"
       width="1050.8203"
       height="1488.2263"
       x="-8.8869738e-006"
       y="2.900409" />
  </g>
  <g
     inkscape:label="blue"
     inkscape:groupmode="layer"
     id="layer1"
     transform="translate(0,435.82647)"
     style="display:none"
     sodipodi:insensitive="true">
    <rect
       style="fill:#2498d1;fill-opacity:1;fill-rule:nonzero;stroke:#5c7e00;stroke-width:0.83527112;stroke-linecap:round;stroke-linejoin:round;stroke-miterlimit:4;stroke-dasharray:none;stroke-dashoffset:0;stroke-opacity:1"
       id="rect3049"
       width="1108.0601"
       height="1566.104"
       x="-28.517336"
       y="-462.19955" />
    <g
       style="font-style:normal;font-weight:normal;font-size:40px;line-height:125%;font-family:Sans;letter-spacing:-3.5999999px;word-spacing:0px;fill:#f9f9f9;fill-opacity:1;stroke:none"
       id="flowRoot2983"
       transform="matrix(0.65473797,0,0,0.73394521,124.4204,-479.27696)" />
    <text
       xml:space="preserve"
       style="font-style:normal;font-weight:normal;font-size:28.49827766px;line-height:125%;font-family:Sans;letter-spacing:-2.56484509px;word-spacing:0px;fill:#000000;fill-opacity:1;stroke:none"
       x="1363.9435"
       y="76.13504"
       id="text2993"
       sodipodi:linespacing="125%"
       transform="scale(0.9532774,1.0490126)"><tspan
         sodipodi:role="line"
         id="tspan2995"
         x="1363.9435"
         y="76.13504">-</tspan></text>
  </g>
  <g
     inkscape:groupmode="layer"
     id="layer2"
     inkscape:label="green"
     style="display:none"
     sodipodi:insensitive="true">
    <rect
       style="fill:#008080;fill-rule:evenodd;stroke:#000000;stroke-width:1.04694068px;stroke-linecap:butt;stroke-linejoin:miter;stroke-opacity:1"
       id="rect3843"
       width="1122.0908"
       height="1567.4708"
       x="-34.554855"
       y="-30.030907" />
  </g>
  <g
     inkscape:groupmode="layer"
     id="layer3"
     inkscape:label="green 1"
     style="display:none"
     sodipodi:insensitive="true">
    <rect
       style="fill:#808000"
       id="rect3846"
       width="1131.1157"
       height="1579.3682"
       x="-35.758171"
       y="-38.953892" />
  </g>
  <g
     inkscape:groupmode="layer"
     id="layer4"
     inkscape:label="red"
     style="display:none"
     sodipodi:insensitive="true">
    <rect
       style="fill:#aa0000"
       id="rect3849"
       width="1137.1322"
       height="1576.3939"
       x="-40.571426"
       y="-35.979565" />
  </g>
  <g
     inkscape:groupmode="layer"
     id="layer5"
     inkscape:label="red 1"
     sodipodi:insensitive="true"
     style="display:none">
    <rect
       style="fill:#c83737"
       id="rect3860"
       width="1112.506"
       height="1552.7954"
       x="-35.973755"
       y="-29.55784" />
  </g>
  <g
     inkscape:groupmode="layer"
     id="layer6"
     inkscape:label="red 2"
     style="display:none"
     sodipodi:insensitive="true">
    <rect
       style="fill:#d45500"
       id="rect3863"
       width="1108.0787"
       height="1549.2657"
       x="-31.54657"
       y="-29.55784" />
  </g>
  <g
     inkscape:groupmode="layer"
     id="layer7"
     inkscape:label="red 3"
     style="display:none"
     sodipodi:insensitive="true">
    <rect
       style="fill:#aa8800"
       id="rect3866"
       width="1112.506"
       height="1549.2657"
       x="-35.973755"
       y="-29.55784" />
  </g>
  <g
     inkscape:groupmode="layer"
     id="layer8"
     inkscape:label="red 4"
     style="display:none"
     sodipodi:insensitive="true">
    <rect
       style="fill:#ffcc00"
       id="rect3869"
       width="1108.0787"
       height="1570.462"
       x="-25.590466"
       y="-35.446709"
       ry="0" />
  </g>
  <g
     inkscape:groupmode="layer"
     id="layer9"
     inkscape:label="wikimedia">
    <g
       transform="matrix(1.8975697,0,0,1.8975697,105.87207,268.72357)"
       id="Calque_1"
       i:layer="yes"
       i:dimmedPercent="50"
       i:rgbTrio="#4F008000FFFF">
      <path
         inkscape:connector-curvature="0"
         style="fill:#990000"
         i:knockout="Off"
         d="m 156.7513,26.274261 c 0,-38.61613 31.30453,-69.916999 69.92555,-69.916999 38.62102,0 69.92433,31.300869 69.92433,69.916999 0,38.612466 -31.30454,69.910891 -69.92433,69.910891 -38.6198,0 -69.92555,-31.298425 -69.92555,-69.910891 l 0,0 z"
         id="path2336" />
      <path
         inkscape:connector-curvature="0"
         style="fill:#339966"
         i:knockout="Off"
         d="m 311.29644,68.364194 c 26.13413,23.29793 42.58828,57.210256 42.58828,94.972596 0,65.17655 -49.03265,118.89957 -112.22191,126.31621 l 0,-151.66129 69.63363,-69.627516 0,0 z"
         id="path2338" />
      <path
         inkscape:connector-curvature="0"
         style="fill:#339966"
         i:knockout="Off"
         d="m 99.470202,163.33679 c 0,-37.76356 16.455368,-71.674666 42.587058,-94.972596 l 69.63362,69.627516 0,151.66129 C 148.49797,282.23636 99.470202,228.51334 99.470202,163.33679 l 0,0 z"
         id="path2340" />
      <path
         inkscape:connector-curvature="0"
         style="fill:#006699"
         i:knockout="Off"
         d="m 15.153532,166.45148 c 0,-61.83344 26.538436,-117.466806 68.84579,-156.140344 L 122.65087,48.959024 C 91.230302,77.354063 71.485572,118.42653 71.485572,164.1063 c 0,85.69935 69.482158,155.17418 155.191278,155.17418 85.71278,0 155.19006,-69.47483 155.19006,-155.17418 0,-45.67977 -19.74107,-86.752237 -51.16042,-115.147276 l 38.654,-38.647888 c 42.30979,38.672317 68.8409,94.308124 68.8409,156.140344 0,116.80479 -94.69533,211.49767 -211.52454,211.49767 -116.82311,0 -211.523318,-94.69166 -211.523318,-211.49767 l 0,0 z"
         id="path2342" />
      <g
         transform="matrix(0.52698986,0,0,0.52698986,41.837675,-155.77484)"
         style="font-style:normal;font-weight:normal;font-size:40px;line-height:125%;font-family:sans-serif;letter-spacing:0px;word-spacing:0px;fill:#28170b;fill-opacity:1;stroke:none;stroke-width:1px;stroke-linecap:butt;stroke-linejoin:miter;stroke-opacity:1"
         id="flowRoot3908">
        <path
           d="m 67.116699,1125.7363 q 0.361328,4.9683 0.361328,12.3755 0,7.3169 -2.529297,23.8477 l 11.291504,0 0,-66.9361 17.795411,0 0,82.2022 -48.508301,0 q 5.32959,-27.5513 5.32959,-41.9141 0,-25.2026 -14.362793,-25.2026 -15.175782,0 -15.175782,27.0093 0,19.873 5.419922,40.1074 l -16.711426,0 q -4.9682613,-21.5894 -4.9682613,-40.1074 0,-27.0093 10.2075193,-37.0362 7.587891,-7.4975 20.957032,-7.4975 28.454589,0 30.893554,33.1518 z"
           style="font-style:normal;font-variant:normal;font-weight:bold;font-stretch:normal;font-size:185px;font-family:Keraleeyam;-inkscape-font-specification:'Keraleeyam Bold';fill:#28170b"
           id="path3370" />
        <path
           d="m 75.698242,1081.835 -0.09033,-1.626 q 0,-8.8526 6.413574,-13.8208 5.961914,-4.5166 14.272461,-4.5166 8.581545,0 14.814455,4.6069 6.7749,5.1489 6.7749,13.8208 l 0,96.9263 -15.8081,0 0,-94.4873 q 0,-2.8906 -1.98731,-4.336 -1.896972,-1.4453 -4.064941,-1.4453 -2.167969,0 -3.793945,1.355 -1.716309,1.2647 -1.716309,3.8843 l 0,0.542 0.180664,2.7099 q 0.09033,0.9937 0.180664,1.897 0,0.9033 0.09033,0.9937 l -14.814453,0 -0.45166,-6.5039 z"
           style="font-style:normal;font-variant:normal;font-weight:bold;font-stretch:normal;font-size:185px;font-family:Keraleeyam;-inkscape-font-specification:'Keraleeyam Bold';fill:#28170b"
           id="path3372" />
        <path
           d="m 164.49463,1173.7026 q -4.87793,6.1426 -14.81445,6.1426 -11.02051,0 -18.51807,-7.8589 -7.40723,-7.7685 -7.40723,-18.9697 0,-11.4722 7.58789,-19.1504 7.58789,-7.7685 19.06006,-7.7685 2.2583,-23.2154 16.53076,-30.6226 5.14893,-2.71 10.47852,-2.71 5.32959,0 8.49121,0.813 3.25195,0.7227 6.14258,2.168 6.32324,3.3423 8.85254,8.4912 4.15527,-7.1362 17.52441,-9.1235 3.70361,-0.542 6.95557,-0.542 17.88574,0 27.00928,11.8335 8.12988,10.5688 8.12988,28.7256 0,18.0664 -7.22656,42.0947 l -16.98243,0 q 7.58789,-24.48 7.58789,-41.9141 0,-11.0205 -2.89062,-15.6274 -2.80029,-4.6973 -6.41357,-6.6846 -3.61329,-2.0776 -8.12989,-2.0776 -4.42627,0 -7.31689,0.542 -2.89063,0.542 -5.23926,1.8066 -5.14893,2.8003 -7.0459,8.6719 l 0.81299,4.1553 7.40723,0 q 9.57519,0 15.62744,8.6718 5.41992,7.9493 5.41992,17.7051 0,10.2979 -6.23291,18.2471 -6.68457,8.4912 -16.71143,8.4912 -7.58789,0 -12.46582,-4.2456 -1.71631,-1.4453 -2.43896,-3.3423 -3.43262,5.6006 -13.27881,7.2266 -2.80029,0.4516 -5.41992,0.4516 -12.10449,0 -15.08545,-5.6006 z m 55.19287,-21.228 q 0,-6.4136 -3.25195,-9.5752 -1.17432,-1.084 -2.98096,-1.084 l -5.51025,0 q -0.36133,3.252 -0.542,6.5943 -0.18066,3.2519 -0.90332,6.4135 0.63233,4.6973 4.33594,6.9556 1.17432,0.7227 2.70996,0.7227 1.62598,0 2.80029,-0.9937 1.17432,-1.084 1.89698,-2.7099 1.44531,-3.0713 1.44531,-6.3233 z m -28.00293,-26.3769 q -0.72266,-7.4976 -2.43896,-10.5689 -3.43262,-6.1426 -9.66553,-6.1426 -9.03321,0 -11.5625,10.8399 -0.63233,2.9809 -0.99365,5.8716 l 24.66064,0 z m 0.36133,15.7177 -25.47363,0 q 0.27099,8.9429 1.9873,12.9175 3.52295,8.0396 11.02051,8.0396 10.65918,0 12.01416,-14.0918 0.36133,-3.7036 0.45166,-6.8653 z m -38.02979,20.6861 q -3.43261,-8.0396 -4.06494,-20.6861 l -0.27099,0 q -4.06495,0 -6.77491,3.6133 -2.52929,3.3423 -2.52929,6.5039 0,3.1616 0.63232,5.0586 0.63232,1.8067 1.89697,3.252 2.70996,3.0713 6.77491,3.0713 1.17431,0 2.16796,-0.271 1.08399,-0.3614 2.16797,-0.542 z"
           style="font-style:normal;font-variant:normal;font-weight:bold;font-stretch:normal;font-size:185px;font-family:Keraleeyam;-inkscape-font-specification:'Keraleeyam Bold';fill:#28170b"
           id="path3374" />
        <path
           d="m 241.54785,1081.835 -0.0903,-1.626 q 0,-8.8526 6.41357,-13.8208 5.96192,-4.5166 14.27246,-4.5166 8.58155,0 14.81446,4.6069 6.7749,5.1489 6.7749,13.8208 l 0,96.9263 -15.80811,0 0,-94.4873 q 0,-2.8906 -1.9873,-4.336 -1.89697,-1.4453 -4.06494,-1.4453 -2.16797,0 -3.79395,1.355 -1.71631,1.2647 -1.71631,3.8843 l 0,0.542 0.18067,2.7099 q 0.0903,0.9937 0.18066,1.897 0,0.9033 0.0903,0.9937 l -14.81445,0 -0.45166,-6.5039 z"
           style="font-style:normal;font-variant:normal;font-weight:bold;font-stretch:normal;font-size:185px;font-family:Keraleeyam;-inkscape-font-specification:'Keraleeyam Bold';fill:#28170b"
           id="path3376" />
        <path
           d="m 358.25684,1176.5029 -68.83301,0 0,-39.3847 q 0,-30.8033 17.70508,-40.6494 6.5039,-3.7037 16.16943,-3.7037 9.75586,0 16.3501,3.4327 6.59424,3.3422 10.65918,9.1235 7.94922,11.2915 7.94922,29.9902 l 0,41.1914 z m -29.71924,-14.1821 13.45947,0 0,-27.0093 q 0,-11.8335 -2.70996,-16.7114 -2.70996,-4.8779 -6.23291,-6.9556 -3.43262,-2.0776 -9.93652,-2.0776 -13.09815,0 -16.25977,14.6338 2.98096,-2.2583 8.31055,-2.2583 5.32959,0 8.7622,1.9873 3.52295,1.897 5.78125,5.0586 4.24561,5.9619 4.24561,15.9888 0,10.0268 -5.41992,17.3437 z m -9.5752,-16.9824 q 0,-9.4849 -7.94922,-9.4849 -3.07129,0 -5.41992,3.794 l 0,22.6733 5.51026,0 q 5.41992,-4.7876 7.22656,-12.3755 0.63232,-2.439 0.63232,-4.6069 z"
           style="font-style:normal;font-variant:normal;font-weight:bold;font-stretch:normal;font-size:185px;font-family:Keraleeyam;-inkscape-font-specification:'Keraleeyam Bold';fill:#28170b"
           id="path3378" />
        <path
           d="m 367.10937,1092.4038 q -2.34863,1.9873 -6.7749,1.9873 -4.33593,0 -7.40722,-1.084 -3.07129,-1.084 -5.51026,-3.0713 -5.14892,-4.3359 -5.14892,-10.0268 0,-5.6909 1.53564,-9.1236 1.53565,-3.4326 4.15527,-5.7812 5.32959,-4.7876 14.00147,-4.7876 15.17578,0 20.50537,10.8398 1.80664,3.6133 1.80664,8.4913 l 0,98.2812 -17.16309,0 0,-85.7251 z m 2.16797,-14.1821 q 0,-2.3487 -1.7163,-4.065 -1.71631,-1.7163 -4.06495,-1.7163 -2.34863,0 -4.06494,1.7163 -1.71631,1.626 -1.71631,4.065 0,2.3486 1.71631,4.0649 1.71631,1.7163 4.06494,1.7163 2.34864,0 4.06495,-1.7163 1.7163,-1.7163 1.7163,-4.0649 z"
           style="font-style:normal;font-variant:normal;font-weight:bold;font-stretch:normal;font-size:185px;font-family:Keraleeyam;-inkscape-font-specification:'Keraleeyam Bold';fill:#28170b"
           id="path3380" />
        <path
           d="m 507.48535,1139.4668 q 0,-20.8667 -11.65283,-44.1724 l 17.07275,0 q 7.76856,12.1045 10.11719,30.7129 0.63233,5.4199 0.63233,12.0142 0,6.5039 -1.17432,14.2724 -1.17432,7.6783 -4.5166,13.7305 -7.22657,13.1885 -23.48633,13.1885 -16.16943,0 -21.77002,-9.5752 -5.78125,9.9365 -19.69238,9.9365 -12.64649,0 -19.60205,-8.3105 -6.32325,-7.5879 -6.32325,-20.0537 0,-4.607 1.17432,-11.2012 2.2583,-12.5562 2.2583,-16.0791 0,-3.6133 -0.271,-6.1426 -0.27099,-2.6196 -1.26464,-4.6973 -2.2583,-4.7876 -7.40723,-4.7876 -5.14893,0 -8.12988,2.2583 -2.89063,2.2583 -4.7876,5.6006 -3.34229,6.2329 -3.34229,14.9952 0,30.9838 14.63379,46.25 l -18.78906,0 q -8.67187,-11.2012 -11.11084,-30.7129 -0.63232,-5.5103 -0.63232,-11.8335 0,-6.3233 1.35498,-14.0015 1.35498,-7.6782 4.87793,-13.9111 7.94922,-14.0015 25.56396,-14.0015 11.74317,0 19.15039,8.7622 6.7749,8.0396 6.7749,20.415 0,5.149 -1.08398,11.3819 -2.16797,11.8335 -2.16797,15.5371 0,3.7036 0.54199,6.1426 0.542,2.3486 1.80664,4.3359 2.70997,4.3359 6.59424,4.3359 3.97461,0 5.96192,-1.3549 2.07763,-1.4453 3.34228,-3.6133 2.61963,-4.2456 2.61963,-9.8462 l 0,-52.8442 16.3501,0 0,52.8442 q 0,5.4199 2.5293,8.6719 4.5166,5.9619 9.75585,5.9619 5.32959,0 8.12989,-2.3487 2.89062,-2.3486 4.15527,-5.9619 1.80664,-4.7876 1.80664,-15.8984 z"
           style="font-style:normal;font-variant:normal;font-weight:bold;font-stretch:normal;font-size:185px;font-family:Keraleeyam;-inkscape-font-specification:'Keraleeyam Bold';fill:#28170b"
           id="path3382" />
        <path
           d="m 505.31738,1081.835 -0.0903,-1.626 q 0,-8.8526 6.41357,-13.8208 5.96192,-4.5166 14.27247,-4.5166 8.58154,0 14.81445,4.6069 6.7749,5.1489 6.7749,13.8208 l 0,96.9263 -15.8081,0 0,-94.4873 q 0,-2.8906 -1.98731,-4.336 -1.89697,-1.4453 -4.06494,-1.4453 -2.16797,0 -3.79395,1.355 -1.7163,1.2647 -1.7163,3.8843 l 0,0.542 0.18066,2.7099 q 0.0903,0.9937 0.18066,1.897 0,0.9033 0.0903,0.9937 l -14.81446,0 -0.45166,-6.5039 z"
           style="font-style:normal;font-variant:normal;font-weight:bold;font-stretch:normal;font-size:185px;font-family:Keraleeyam;-inkscape-font-specification:'Keraleeyam Bold';fill:#28170b"
           id="path3384" />
        <path
           d="m 645.42236,1137.3892 q 0,-18.1568 -11.83349,-41.8238 l 18.15674,0 q 7.22656,19.3311 8.49121,27.9126 1.35498,8.4912 1.35498,15.5371 0,7.0459 -1.80664,14.7242 -1.71631,7.5878 -5.78125,13.3691 -8.76221,12.2852 -27.09961,12.2852 -13.36914,0 -18.96973,-5.962 -7.40723,5.962 -17.79541,5.962 -10.38818,0 -17.25342,-3.9747 -6.7749,-3.9746 -11.20117,-10.3881 -8.67187,-12.5562 -8.67187,-30.9839 0,-30.8032 15.35644,-38.6621 3.88428,-1.9873 9.21387,-1.9873 9.0332,0 14.90478,8.4912 6.95557,-8.4912 17.52442,-8.4912 15.44677,0 21.95068,20.8667 2.43897,7.8588 2.43897,14.0014 0,6.0523 -0.90332,10.7495 -0.81299,4.607 -2.43897,9.1236 -3.79395,10.1172 -9.93652,15.8984 l 2.98095,0.7227 q 14.3628,3.5229 19.42139,-13.5498 1.89697,-6.5039 1.89697,-13.8208 z m -36.76513,20.3247 q 9.3042,-11.2012 9.3042,-28.7256 0,-12.0142 -4.15528,-17.1631 -1.80664,-2.168 -4.96826,-2.168 -3.16162,0 -5.14893,2.5293 -1.9873,2.5293 -3.07128,6.0523 -1.71631,5.6006 -1.71631,11.2011 0,5.6006 0.18066,9.0332 0.18067,3.3423 1.08399,6.5943 2.16796,7.4072 8.49121,12.6465 z m -12.82715,6.9555 q -12.91748,-13.0981 -12.91748,-31.8872 l 0.63232,-9.7558 q 0,-6.8653 -2.70996,-10.2979 -1.17432,-1.355 -2.98096,-1.355 -5.96191,0 -8.12988,14.3628 -0.63232,4.2456 -0.63232,7.4976 0,3.2519 0.54199,7.0459 0.54199,3.7036 1.71631,7.5879 1.17431,3.7939 3.07129,7.4072 1.89697,3.523 4.5166,6.0522 6.5039,6.4136 14.63379,3.7037 0.63232,-0.1807 2.2583,-0.3614 z"
           style="font-style:normal;font-variant:normal;font-weight:bold;font-stretch:normal;font-size:185px;font-family:Keraleeyam;-inkscape-font-specification:'Keraleeyam Bold';fill:#28170b"
           id="path3386" />
      </g>
    </g>
  </g>
</svg>
